#!OML:ASF F:\VICON\USERDATA\Patient Classification 1\PLAYGROUND\JustinFriday\JustinFriday.ASF
:FULLY-SPECIFIED
:DEGREES
2420
root -11.8312 30.2734 -9.82208 292.299 84.5534 -98.0835
lowerback 19.144 -1.42009 -0.19788
upperback 7.94801 -1.28435 2.11261
thorax -2.10278 -0.471351 2.60441
lowerneck 7.32721 -19.7159 -9.66441
upperneck -31.5817 -23.3753 27.4674
head -5.82927 -13.1877 11.4253
rclavicle -3.65764e-014 -2.90226e-014
rhumerus -12.7896 26.5827 -85.596
rradius 54.4228
rwrist 28.5501
rhand -38.9821 4.83723
rfingers 7.12502
rthumb -11.9864 -24.7996
lclavicle -3.65764e-014 -2.90226e-014
lhumerus -18.3444 -16.5033 83.7068
lradius 55.3991
lwrist -36.5456
lhand -35.2885 -35.2914
lfingers 7.12502
lthumb -8.42318 -5.47941
rfemur -22.3659 -0.681674 26.5775
rtibia 33.7027
rfoot -32.7821 -9.37009
rtoes 3.74496
lfemur -23.4483 3.97982 -17.5061
ltibia 35.7164
lfoot -33.7688 -0.860047
ltoes 3.06558
2421
root -11.8304 30.2717 -9.83389 293.767 84.5359 -96.6161
lowerback 19.1715 -1.64877 -0.170579
upperback 7.89992 -1.58624 1.96806
thorax -2.15975 -0.618806 2.49812
lowerneck 7.27926 -19.0316 -9.11363
upperneck -31.6328 -22.3967 26.6852
head -6.22778 -12.6554 11.2632
rclavicle 6.36111e-015 -3.81667e-014
rhumerus -12.4863 27.032 -86.1609
rradius 53.8791
rwrist 28.8254
rhand -38.9607 4.96703
rfingers 7.12502
rthumb -11.9658 -24.671
lclavicle 6.36111e-015 -3.81667e-014
lhumerus -18.3958 -15.7427 83.3886
lradius 55.2358
lwrist -36.6973
lhand -35.2714 -35.2122
lfingers 7.12502
lthumb -8.40673 -5.39949
rfemur -22.3587 -0.664655 26.4861
rtibia 33.6967
rfoot -32.6545 -9.33748
rtoes 3.01364
lfemur -23.3179 3.98245 -17.5445
ltibia 35.5895
lfoot -33.3755 1.15343
ltoes -3.33073
2422
root -11.8205 30.2733 -9.81178 289.512 84.2518 -100.683
lowerback 19.247 -1.76094 -0.0622796
upperback 7.7994 -1.70369 2.17364
thorax -2.29722 -0.677068 2.68299
lowerneck 8.00876 -18.4485 -9.19986
upperneck -31.8664 -21.6354 26.3721
head -6.60788 -12.2617 11.3957
rclavicle -2.78299e-014 4.33351e-014
rhumerus -12.7062 26.862 -86.4133
rradius 53.5163
rwrist 29.0338
rhand -38.6247 5.54683
rfingers 7.12502
rthumb -11.6417 -24.1098
lclavicle -2.78299e-014 4.33351e-014
lhumerus -18.6621 -15.2048 83.5677
lradius 54.8784
lwrist -37.0545
lhand -35.2293 -35.2383
lfingers 7.12502
lthumb -8.36609 -5.42395
rfemur -22.0897 -0.491377 26.9605
rtibia 33.7622
rfoot -33.0966 -9.0493
rtoes 5.58953
lfemur -23.057 3.31651 -16.7676
ltibia 35.5034
lfoot -33.2412 -0.997745
ltoes 2.24429
2423
root -11.8211 30.2736 -9.82585 290.758 84.3728 -99.3954
lowerback 19.277 -1.56853 0.158456
upperback 7.68098 -1.42264 2.17407
thorax -2.45912 -0.535929 2.50281
lowerneck 8.65282 -18.0662 -9.79809
upperneck -32.0957 -21.1904 26.4367
head -6.78395 -12.015 11.6438
rclavicle 4.13472e-014 4.81059e-014
rhumerus -12.9445 25.7735 -86.2147
rradius 53.1251
rwrist 29.622
rhand -38.1807 5.65555
rfingers 7.12502
rthumb -11.2136 -24.0248
lclavicle 4.13472e-014 4.81059e-014
lhumerus -18.6411 -15.8877 84.0987
lradius 54.6358
lwrist -36.9208
lhand -35.115 -35.2364
lfingers 7.12502
lthumb -8.25573 -5.41766
rfemur -22.0447 -0.665642 26.7971
rtibia 33.7886
rfoot -33.3696 -8.17182
rtoes 7.84348
lfemur -22.9688 3.56598 -16.9875
ltibia 35.4314
lfoot -33.2382 -2.01795
ltoes 5.38103
2424
root -11.8187 30.2657 -9.81639 292.181 84.3752 -97.9265
lowerback 19.1991 -1.04115 0.439971
upperback 7.63045 -0.68121 2.44987
thorax -2.5042 -0.170259 2.48088
lowerneck 9.2424 -17.8272 -11.5461
upperneck -32.2773 -21.0735 27.1134
head -6.61578 -11.8909 12.1532
rclavicle 1.27222e-014 -1.98785e-015
rhumerus -13.1385 24.4375 -85.1698
rradius 52.9633
rwrist 29.8382
rhand -37.9269 5.3931
rfingers 7.12502
rthumb -10.9688 -24.3004
lclavicle 1.27222e-014 -1.98785e-015
lhumerus -18.2546 -16.8711 85.4053
lradius 54.1343
lwrist -37.2008
lhand -35.1087 -35.1659
lfingers 7.12502
lthumb -8.24969 -5.34697
rfemur -21.9498 -0.384511 26.7623
rtibia 33.78
rfoot -33.1212 -9.18455
rtoes 5.11931
lfemur -22.9829 5.01318 -17.4563
ltibia 35.4345
lfoot -33.6601 -0.506544
ltoes 0.750539
2425
root -11.8152 30.2573 -9.8084 292.614 84.3864 -97.4399
lowerback 19.1924 -1.33971 0.088069
upperback 7.69699 -1.14092 2.19539
thorax -2.40826 -0.399537 2.50483
lowerneck 8.82893 -16.9233 -11.1274
upperneck -31.7171 -19.6587 26.9867
head -6.72203 -11.2132 12.0863
rclavicle -1.74931e-014 -2.3059e-014
rhumerus -12.89 25.5408 -85.979
rradius 52.9773
rwrist 29.7265
rhand -38.3214 5.51478
rfingers 7.12502
rthumb -11.3492 -24.1581
lclavicle -1.74931e-014 -2.3059e-014
lhumerus -16.982 -13.9637 85.8281
lradius 52.1593
lwrist -39.6271
lhand -35.2852 -35.2788
lfingers 7.12502
lthumb -8.42001 -5.46661
rfemur -21.882 -0.159338 26.7388
rtibia 33.8319
rfoot -32.8726 -10.3069
rtoes 2.03978
lfemur -22.7885 4.3335 -17.2453
ltibia 35.3857
lfoot -33.3871 0.237343
ltoes -2.01895
2426
root -11.8108 30.2533 -9.80659 292.665 84.4665 -97.3343
lowerback 19.079 -1.13377 0.292816
upperback 7.69541 -0.835628 2.31181
thorax -2.36649 -0.247504 2.44691
lowerneck 9.17836 -16.7871 -11.4211
upperneck -32.1846 -19.5361 26.8076
head -6.95062 -11.1019 12.1895
rclavicle -3.97569e-016 -2.78299e-015
rhumerus -13.1816 24.8997 -85.6559
rradius 53.1216
rwrist 30.0246
rhand -38.7913 5.46397
rfingers 7.12502
rthumb -11.8024 -24.1835
lclavicle -3.97569e-016 -2.78299e-015
lhumerus -18.1718 -16.5309 85.1566
lradius 54.064
lwrist -37.3102
lhand -34.9317 -35.0502
lfingers 7.12502
lthumb -8.07881 -5.22465
rfemur -21.8084 -0.0517071 26.6404
rtibia 33.838
rfoot -33.1283 -9.84662
rtoes 3.47889
lfemur -22.7067 4.41601 -17.4138
ltibia 35.3821
lfoot -33.4984 1.46705
ltoes -4.67611
2427
root -11.8082 30.2511 -9.80479 292.729 84.6344 -97.2129
lowerback 19.0371 -0.957702 0.318508
upperback 7.68849 -0.60479 2.31281
thorax -2.36214 -0.133531 2.38523
lowerneck 9.50693 -16.6587 -11.0344
upperneck -32.7621 -19.3639 26.2209
head -7.37741 -10.9738 12.1029
rclavicle -1.86858e-014 -2.62396e-014
rhumerus -13.3048 24.0972 -85.5556
rradius 53.0227
rwrist 30.3358
rhand -38.7587 5.66744
rfingers 7.12502
rthumb -11.771 -23.9818
lclavicle -1.86858e-014 -2.62396e-014
lhumerus -17.8239 -16.7761 85.5239
lradius 53.5106
lwrist -37.6017
lhand -34.8701 -35.9786
lfingers 7.12502
lthumb -8.01937 -6.15076
rfemur -21.7194 0.120482 26.4314
rtibia 33.7998
rfoot -33.4903 -8.78141
rtoes 7.09443
lfemur -22.6063 4.05583 -17.632
ltibia 35.3498
lfoot -33.8716 0.121071
ltoes 1.26058
2428
root -11.8085 30.2497 -9.80618 294.14 84.6679 -95.8312
lowerback 18.966 -0.708975 0.477689
upperback 7.58761 -0.273806 2.14449
thorax -2.44936 0.0310489 2.04757
lowerneck 9.97797 -16.346 -10.8443
upperneck -32.8667 -18.8966 26.1329
head -7.63251 -10.7681 12.1774
rclavicle -2.54444e-014 -4.03533e-014
rhumerus -13.5399 22.9619 -85.7307
rradius 52.8907
rwrist 30.6235
rhand -38.5692 5.99452
rfingers 7.12502
rthumb -11.5882 -23.6651
lclavicle -2.54444e-014 -4.03533e-014
lhumerus -17.5704 -17.0581 85.5981
lradius 52.8433
lwrist -38.0879
lhand -34.9374 -36.9131
lfingers 7.12502
lthumb -8.08432 -7.08769
rfemur -21.739 0.356601 26.3208
rtibia 33.7475
rfoot -33.8077 -7.75664
rtoes 10.7581
lfemur -22.6279 3.74316 -17.6693
ltibia 35.3819
lfoot -33.913 0.214843
ltoes 1.9913
2429
root -11.8096 30.2546 -9.82031 291.409 84.7502 -98.8786
lowerback 18.6248 -1.15259 0.504035
upperback 7.6323 -0.856718 2.04536
thorax -2.20828 -0.256001 2.04055
lowerneck 9.33802 -15.4915 -11.0405
upperneck -32.2992 -17.6278 26.1394
head -7.55789 -10.1091 12.1435
rclavicle -3.57812e-015 -9.14409e-015
rhumerus -13.0275 23.7945 -86.004
rradius 52.7805
rwrist 30.6255
rhand -38.3709 5.99563
rfingers 7.12502
rthumb -11.397 -23.6746
lclavicle -3.57812e-015 -9.14409e-015
lhumerus -17.865 -16.7814 84.7809
lradius 53.506
lwrist -37.5115
lhand -34.9725 -36.1822
lfingers 7.12502
lthumb -8.11821 -6.35814
rfemur -22.0628 0.266472 26.2353
rtibia 33.6059
rfoot -34.0467 -7.15893
rtoes 13.3089
lfemur -23.065 2.72968 -17.7135
ltibia 35.4652
lfoot -33.8472 2.34621
ltoes -2.21165
2430
root -11.8215 30.2576 -9.8285 284.385 84.7797 -106.092
lowerback 18.5699 -1.25575 1.03882
upperback 7.35417 -0.897731 2.30973
thorax -2.48023 -0.274514 2.02711
lowerneck 10.2657 -15.0956 -11.9048
upperneck -32.8767 -17.3073 25.9648
head -7.91186 -9.85388 12.4317
rclavicle 1.59028e-014 1.76918e-014
rhumerus -13.5939 23.7905 -85.4077
rradius 53.1925
rwrist 30.3893
rhand -38.1379 6.14668
rfingers 7.12502
rthumb -11.1722 -23.5359
lclavicle 1.59028e-014 1.76918e-014
lhumerus -18.2366 -16.7703 85.7851
lradius 53.3916
lwrist -38.0028
lhand -35.0618 -35.651
lfingers 7.12502
lthumb -8.20446 -5.83031
rfemur -22.2753 -0.0685613 26.3439
rtibia 33.5551
rfoot -33.9369 -8.17267
rtoes 11.4894
lfemur -23.3847 1.49303 -17.5991
ltibia 35.494
lfoot -33.9073 2.31707
ltoes -0.750761
2431
root -11.7934 30.2387 -9.83198 294.238 83.8732 -95.9976
lowerback 18.323 -0.735749 1.47913
upperback 7.5204 -0.149288 2.48101
thorax -2.19678 0.100191 1.80482
lowerneck 10.4599 -14.7312 -12.5036
upperneck -32.9888 -16.9089 25.9349
head -8.00448 -9.58861 12.5761
rclavicle -2.78299e-015 -1.39149e-015
rhumerus -13.7158 23.5936 -85.066
rradius 53.387
rwrist 30.3099
rhand -38.0528 6.19456
rfingers 7.12502
rthumb -11.0902 -23.4924
lclavicle -2.78299e-015 -1.39149e-015
lhumerus -18.0085 -16.9755 86.177
lradius 53.1113
lwrist -38.1937
lhand -35.0543 -35.6443
lfingers 7.12502
lthumb -8.19718 -5.82336
rfemur -21.7849 0.301517 27.1092
rtibia 33.451
rfoot -33.4937 -9.46682
rtoes 6.36763
lfemur -22.822 2.90443 -16.9363
ltibia 35.5839
lfoot -34.4283 1.12316
ltoes 1.82052
